<svg xmlns="http://www.w3.org/2000/svg" viewBox="0 0 600 400" width="600" height="400">
  <defs>
    <linearGradient id="bg" x1="0%" y1="0%" x2="100%" y2="100%">
      <stop offset="0%" stop-color="#ecfeff"/>
      <stop offset="100%" stop-color="#cffafe"/>
    </linearGradient>
  </defs>
  <rect width="600" height="400" rx="16" fill="url(#bg)"/>
  <!-- Heart icon -->
  <g transform="translate(250, 65)">
    <path d="M50 110 C50 110 5 70 5 35 C5 15 20 0 40 0 C48 0 50 5 50 10 C50 5 52 0 60 0 C80 0 95 15 95 35 C95 70 50 110 50 110 Z" fill="#0891b2" fill-opacity="0.12" stroke="#0891b2" stroke-width="5" stroke-linejoin="round"/>
  </g>
  <text x="300" y="280" font-family="system-ui, -apple-system, 'Segoe UI', sans-serif" font-size="28" font-weight="700" fill="#0e7490" text-anchor="middle">Beauty &amp; Health</text>
  <text x="300" y="310" font-family="system-ui, -apple-system, 'Segoe UI', sans-serif" font-size="16" font-weight="400" fill="#0891b2" fill-opacity="0.7" text-anchor="middle">Skincare, Wellness &amp; More</text>
  <circle cx="280" cy="340" r="3" fill="#0891b2" fill-opacity="0.3"/>
  <circle cx="300" cy="340" r="3" fill="#0891b2" fill-opacity="0.3"/>
  <circle cx="320" cy="340" r="3" fill="#0891b2" fill-opacity="0.3"/>
</svg>
